<svg width="17" height="18" viewBox="0 0 17 18" fill="none" xmlns="http://www.w3.org/2000/svg">
<path fill-rule="evenodd" clip-rule="evenodd" d="M8.49996 16.5003C12.642 16.5003 16 13.1424 16 9.00033C16 4.85824 12.642 1.50033 8.49996 1.50033C4.35788 1.50033 0.999959 4.85824 0.999959 9.00033C0.999959 13.1424 4.35788 16.5003 8.49996 16.5003ZM8.49996 17.3337C13.1025 17.3337 16.8333 13.6028 16.8333 9.00033C16.8333 4.39783 13.1025 0.666992 8.49996 0.666992C3.89746 0.666992 0.166626 4.39783 0.166626 9.00033C0.166626 13.6028 3.89746 17.3337 8.49996 17.3337Z" fill="#2F9062"/>
<path d="M3.5 13.8457C3.5 13.4153 3.82167 13.0516 4.25 13.0041C7.46458 12.6482 9.55 12.6803 12.7575 13.012C12.9177 13.0288 13.0695 13.0919 13.1944 13.1936C13.3193 13.2953 13.4119 13.4311 13.4608 13.5845C13.5098 13.738 13.513 13.9023 13.4701 14.0576C13.4272 14.2128 13.34 14.3522 13.2192 14.4587C9.43375 17.7582 7.27042 17.7128 3.76667 14.462C3.59583 14.3037 3.5 14.0787 3.5 13.8462V13.8457Z" fill="#2F9062"/>
<path fill-rule="evenodd" clip-rule="evenodd" d="M12.7145 13.427C9.53242 13.0978 7.477 13.067 4.29534 13.4191C4.19061 13.4313 4.09405 13.4817 4.02417 13.5607C3.95429 13.6396 3.91598 13.7416 3.91659 13.847C3.91659 13.9662 3.96617 14.0791 4.04992 14.1574C5.78659 15.7683 7.10242 16.4962 8.38867 16.5008C9.6795 16.5053 11.0662 15.7833 12.9453 14.1458C13.005 14.0926 13.048 14.0233 13.069 13.9462C13.0901 13.8691 13.0883 13.7875 13.0638 13.7114C13.0394 13.6353 12.9933 13.568 12.9313 13.5176C12.8693 13.4672 12.794 13.4358 12.7145 13.4274V13.427ZM4.20409 12.5908C7.45242 12.2312 9.56825 12.2637 12.8008 12.5983C13.0417 12.6234 13.2701 12.7183 13.458 12.8712C13.6459 13.0242 13.7851 13.2286 13.8586 13.4595C13.932 13.6903 13.9366 13.9376 13.8717 14.171C13.8069 14.4044 13.6753 14.6139 13.4933 14.7737C11.587 16.4353 9.9995 17.3403 8.38617 17.3341C6.76825 17.3283 5.25075 16.4078 3.48367 14.7683C3.35715 14.6504 3.25629 14.5077 3.1874 14.3492C3.1185 14.1906 3.08305 14.0195 3.08325 13.8466C3.08265 13.5359 3.19667 13.236 3.40349 13.0042C3.61031 12.7724 3.89537 12.625 4.20409 12.5903V12.5908Z" fill="#2F9062"/>
<path d="M11.8333 7.33333C11.8333 8.21739 11.4821 9.06523 10.857 9.69036C10.2319 10.3155 9.38401 10.6667 8.49996 10.6667C7.6159 10.6667 6.76806 10.3155 6.14294 9.69036C5.51782 9.06523 5.16663 8.21739 5.16663 7.33333C5.16663 6.44928 5.51782 5.60143 6.14294 4.97631C6.76806 4.35119 7.6159 4 8.49996 4C9.38401 4 10.2319 4.35119 10.857 4.97631C11.4821 5.60143 11.8333 6.44928 11.8333 7.33333Z" fill="#2F9062"/>
<path fill-rule="evenodd" clip-rule="evenodd" d="M8.49996 9.83333C9.163 9.83333 9.79889 9.56994 10.2677 9.1011C10.7366 8.63226 11 7.99637 11 7.33333C11 6.67029 10.7366 6.03441 10.2677 5.56557C9.79889 5.09673 9.163 4.83333 8.49996 4.83333C7.83692 4.83333 7.20103 5.09673 6.73219 5.56557C6.26335 6.03441 5.99996 6.67029 5.99996 7.33333C5.99996 7.99637 6.26335 8.63226 6.73219 9.1011C7.20103 9.56994 7.83692 9.83333 8.49996 9.83333ZM8.49996 10.6667C9.38401 10.6667 10.2319 10.3155 10.857 9.69036C11.4821 9.06523 11.8333 8.21739 11.8333 7.33333C11.8333 6.44928 11.4821 5.60143 10.857 4.97631C10.2319 4.35119 9.38401 4 8.49996 4C7.6159 4 6.76806 4.35119 6.14294 4.97631C5.51782 5.60143 5.16663 6.44928 5.16663 7.33333C5.16663 8.21739 5.51782 9.06523 6.14294 9.69036C6.76806 10.3155 7.6159 10.6667 8.49996 10.6667Z" fill="#2F9062"/>
</svg>
