<svg width="14" height="16" viewBox="0 0 14 16" fill="none" xmlns="http://www.w3.org/2000/svg">
<path d="M2.83325 15.5C2.37492 15.5 1.9827 15.3369 1.65659 15.0108C1.32992 14.6842 1.16659 14.2917 1.16659 13.8333V3H0.333252V1.33333H4.49992V0.5H9.49992V1.33333H13.6666V3H12.8333V13.8333C12.8333 14.2917 12.6702 14.6842 12.3441 15.0108C12.0174 15.3369 11.6249 15.5 11.1666 15.5H2.83325ZM11.1666 3H2.83325V13.8333H11.1666V3ZM4.49992 12.1667H6.16658V4.66667H4.49992V12.1667ZM7.83325 12.1667H9.49992V4.66667H7.83325V12.1667ZM2.83325 3V13.8333V3Z" fill="#2F9062"/>
</svg>
