<svg width="12" height="21" viewBox="0 0 12 21" fill="none" xmlns="http://www.w3.org/2000/svg">
<path d="M4.9031 20.625V18.2063C3.90935 17.9813 3.05173 17.55 2.33023 16.9125C1.60798 16.275 1.0781 15.375 0.740601 14.2125L2.82185 13.3688C3.1031 14.2688 3.52048 14.9531 4.07398 15.4219C4.62673 15.8906 5.3531 16.125 6.2531 16.125C7.02185 16.125 7.6736 15.9517 8.20835 15.6053C8.74235 15.258 9.00935 14.7188 9.00935 13.9875C9.00935 13.3313 8.8031 12.8108 8.3906 12.426C7.9781 12.042 7.02185 11.6062 5.52185 11.1188C3.90935 10.6125 2.8031 10.008 2.2031 9.30525C1.6031 8.60175 1.3031 7.74375 1.3031 6.73125C1.3031 5.5125 1.69685 4.56563 2.48435 3.89062C3.27185 3.21563 4.0781 2.83125 4.9031 2.7375V0.375H7.1531V2.7375C8.0906 2.8875 8.86423 3.2295 9.47398 3.7635C10.083 4.29825 10.5281 4.95 10.8094 5.71875L8.7281 6.61875C8.5031 6.01875 8.18435 5.56875 7.77185 5.26875C7.35935 4.96875 6.79685 4.81875 6.08435 4.81875C5.25935 4.81875 4.63123 5.00175 4.19998 5.36775C3.76873 5.733 3.5531 6.1875 3.5531 6.73125C3.5531 7.35 3.83435 7.8375 4.39685 8.19375C4.95935 8.55 5.93435 8.925 7.32185 9.31875C8.6156 9.69375 9.59548 10.2889 10.2615 11.1041C10.9267 11.9201 11.2593 12.8625 11.2593 13.9313C11.2593 15.2625 10.8656 16.275 10.0781 16.9688C9.2906 17.6625 8.3156 18.0938 7.1531 18.2625V20.625H4.9031Z" fill="#F5FCF8"/>
</svg>
