<svg width="18" height="18" viewBox="0 0 18 18" fill="none" xmlns="http://www.w3.org/2000/svg">
<path d="M2.16667 17.7497C1.70833 17.7497 1.31583 17.5863 0.989167 17.2597C0.663055 16.9336 0.5 16.5413 0.5 16.083V4.41634C0.5 3.95801 0.663055 3.56551 0.989167 3.23884C1.31583 2.91273 1.70833 2.74967 2.16667 2.74967H9.60417L7.9375 4.41634H2.16667V16.083H13.8333V10.2913L15.5 8.62467V16.083C15.5 16.5413 15.3369 16.9336 15.0108 17.2597C14.6842 17.5863 14.2917 17.7497 13.8333 17.7497H2.16667ZM11.4792 3.22884L12.6667 4.39551L7.16667 9.89551V11.083H8.33333L13.8542 5.56217L15.0417 6.72884L9.04167 12.7497H5.5V9.20801L11.4792 3.22884ZM15.0417 6.72884L11.4792 3.22884L13.5625 1.14551C13.8958 0.812175 14.2953 0.645508 14.7608 0.645508C15.2258 0.645508 15.6181 0.812175 15.9375 1.14551L17.1042 2.33301C17.4236 2.65245 17.5833 3.04134 17.5833 3.49967C17.5833 3.95801 17.4236 4.3469 17.1042 4.66634L15.0417 6.72884Z" fill="#2F9062"/>
</svg>
