<svg width="24" height="24" viewBox="0 0 24 24" fill="none" xmlns="http://www.w3.org/2000/svg">
<path fill-rule="evenodd" clip-rule="evenodd" d="M12 7.19998C10.6745 7.19998 9.59998 8.2745 9.59998 9.59998C9.59998 10.9255 10.6745 12 12 12C13.3255 12 14.4 10.9255 14.4 9.59998C14.4 8.2745 13.3255 7.19998 12 7.19998ZM11.2 9.59998C11.2 9.15814 11.5581 8.80003 12 8.80003C12.4418 8.80003 12.7999 9.15814 12.7999 9.59998C12.7999 10.0418 12.4418 10.3999 12 10.3999C11.5581 10.3999 11.2 10.0418 11.2 9.59998Z" fill="#2F9062"/>
<path fill-rule="evenodd" clip-rule="evenodd" d="M17.1062 6.22764C14.2913 3.25737 9.70869 3.25737 6.89383 6.22764L4.21927 9.04967C3.92691 9.35824 3.92691 9.84174 4.21927 10.1503L6.89383 12.9724C9.70876 15.9426 14.2913 15.9426 17.1062 12.9724L19.7806 10.1503C20.0731 9.84174 20.0731 9.35824 19.7806 9.04967L17.1062 6.22764ZM8.05509 7.32815C10.2389 5.02391 13.7609 5.02391 15.9449 7.32815L18.098 9.59999L15.9449 11.8717C13.7611 14.1761 10.2391 14.1761 8.05509 11.8717L5.90219 9.59999L8.05509 7.32815Z" fill="#2F9062"/>
</svg>
