<svg width="16" height="15" viewBox="0 0 16 15" fill="none" xmlns="http://www.w3.org/2000/svg">
<path d="M8.0001 1.00797C9.64229 1.00797 11.2172 1.66037 12.3785 2.82163C13.5397 3.98278 14.1921 5.55789 14.1921 7.2C14.1921 8.84211 13.5397 10.4171 12.3785 11.5784C11.2173 12.7396 9.64222 13.392 8.0001 13.392C6.35799 13.392 4.78299 12.7396 3.62173 11.5784C2.46047 10.4172 1.80807 8.84211 1.80807 7.2C1.80807 5.55789 2.46047 3.98289 3.62173 2.82163C4.78288 1.66037 6.35799 1.00797 8.0001 1.00797M8.0001 0C6.09051 0 4.25919 0.758571 2.90893 2.10888C1.55862 3.45909 0.800049 5.29051 0.800049 7.20005C0.800049 9.1096 1.55862 10.941 2.90893 12.2912C4.25913 13.6415 6.09056 14.4001 8.0001 14.4001C9.90964 14.4001 11.741 13.6415 13.0913 12.2912C14.4416 10.941 15.2002 9.1096 15.2002 7.20005C15.2002 5.29051 14.4416 3.45914 13.0913 2.10888C11.7411 0.758571 9.90964 0 8.0001 0V0Z" fill="black"/>
<path d="M8.82819 8.24684C8.82819 8.82279 8.81664 9.39886 8.82819 9.97481C8.83141 10.2205 8.72383 10.4545 8.53528 10.612C8.34674 10.7695 8.09734 10.8338 7.85616 10.787C7.78204 10.7751 7.70911 10.7558 7.6388 10.7295C7.50762 10.6847 7.39351 10.6004 7.31205 10.4883C7.23059 10.3762 7.18579 10.2416 7.18368 10.103V9.95894V6.52737C7.17594 6.35842 7.22335 6.19159 7.31868 6.05186C7.4139 5.91214 7.55211 5.80717 7.71223 5.75273C7.88239 5.68723 8.06933 5.6789 8.2447 5.72902C8.42008 5.77914 8.57436 5.88501 8.68426 6.03065C8.78049 6.15711 8.83121 6.3124 8.8282 6.47131L8.82819 8.24684Z" fill="black"/>
<path d="M8.88286 4.48716C8.88166 4.72211 8.78684 4.94681 8.6195 5.11164C8.45206 5.27647 8.22584 5.36777 7.99091 5.36526C7.75597 5.36285 7.53178 5.26683 7.36786 5.09858C7.20393 4.93023 7.11383 4.70353 7.11754 4.46868C7.12126 4.23374 7.21849 4.01004 7.38764 3.84701C7.5568 3.68399 7.78401 3.59509 8.01885 3.60012C8.25088 3.60393 8.47186 3.69936 8.63379 3.86549C8.79561 4.03173 8.8852 4.25511 8.88289 4.48716L8.88286 4.48716Z" fill="black"/>
</svg>
