<svg width="24" height="24" viewBox="0 0 24 24" fill="none" xmlns="http://www.w3.org/2000/svg">
<path d="M6.17812 0C0.448524 0 0 0.448524 0 6.17812V17.8219C0 23.5515 0.448524 24 6.17812 24H17.8219C23.5515 24 24 23.5515 24 17.8219V6.21563C24 0.450825 23.5492 0 17.7844 0H6.17812ZM5.6 0.8H18.4C22.852 0.8 23.2 1.148 23.2 5.6V18.4C23.2 22.852 22.852 23.2 18.4 23.2H5.6C1.148 23.2 0.8 22.852 0.8 18.4V5.6C0.8 1.148 1.148 0.8 5.6 0.8ZM6.30156 3.90312C5.32396 3.90312 4.53125 4.69351 4.53125 5.67031C4.53125 6.64711 5.32316 7.44063 6.30156 7.44063C7.27676 7.44063 8.06875 6.64711 8.06875 5.67031C8.06875 4.69511 7.27676 3.90312 6.30156 3.90312ZM15.5594 8.59375C14.0834 8.59375 13.0947 9.40468 12.6891 10.1719H12.6484V8.8375H9.7375V18.6H12.7703V13.7703C12.7703 12.4975 13.0114 11.2625 14.5906 11.2625C16.1466 11.2625 16.1688 12.7188 16.1688 13.8516V18.6H19.2V13.2453C19.2 10.6165 18.6314 8.59375 15.5594 8.59375ZM4.78281 8.8375V18.6H7.81719V8.8375H4.78281Z" fill="white"/>
</svg>
