<svg width="24" height="23" viewBox="0 0 24 23" fill="none" xmlns="http://www.w3.org/2000/svg">
<path d="M12 0.25C11.4375 0.25 10.875 0.46375 10.4138 0.91375L6.70125 4.615L12 9.9025L17.2988 4.615L13.5863 0.91375C13.125 0.46375 12.5625 0.25 12 0.25ZM5.11501 6.20125L1.41375 9.91375C0.525005 10.7913 0.525005 12.2087 1.41375 13.0863L5.11501 16.7987L10.4025 11.5L5.11501 6.20125ZM18.885 6.20125L13.5975 11.5L18.885 16.7987L22.5863 13.0863C23.475 12.2087 23.475 10.7913 22.5863 9.91375L18.885 6.20125ZM12 13.0975L6.70125 18.385L10.4138 22.0863C11.2913 22.975 12.7088 22.975 13.5863 22.0863L17.2988 18.385L12 13.0975Z" fill="#F5FCF8"/>
</svg>
