<svg width="27" height="27" viewBox="0 0 27 27" fill="none" xmlns="http://www.w3.org/2000/svg">
<path d="M14.9554 2.46394e-06C15.3523 2.46394e-06 15.7074 0.247052 15.841 0.616952L16.7941 3.2589C17.1357 3.34395 17.4286 3.429 17.677 3.5181C17.9484 3.6153 18.298 3.76245 18.73 3.9636L20.9494 2.7891C21.1306 2.69313 21.338 2.65848 21.5405 2.69037C21.743 2.72226 21.9297 2.81895 22.0726 2.96595L24.0247 4.9842C24.2839 5.25285 24.3568 5.6457 24.211 5.9886L23.1702 8.42805C23.343 8.7453 23.4807 9.01665 23.586 9.24345C23.6994 9.4905 23.8398 9.8307 24.0072 10.2695L26.4331 11.309C26.7976 11.4642 27.0231 11.8287 26.9988 12.2189L26.8206 15.0201C26.8084 15.2021 26.7431 15.3765 26.6327 15.5217C26.5223 15.6669 26.3717 15.7765 26.1996 15.8369L23.9019 16.6536C23.8357 16.9709 23.7669 17.2422 23.694 17.4717C23.5764 17.8261 23.4421 18.1748 23.2917 18.5166L24.4459 21.0681C24.5274 21.2474 24.5493 21.448 24.5085 21.6407C24.4677 21.8333 24.3663 22.0078 24.2191 22.1387L22.024 24.0989C21.8795 24.2274 21.6991 24.3087 21.507 24.3319C21.315 24.355 21.1204 24.3189 20.9494 24.2285L18.6868 23.0297C18.3328 23.2171 17.9676 23.3825 17.5933 23.5251L16.6051 23.895L15.7276 26.325C15.6626 26.503 15.5453 26.6571 15.3911 26.7672C15.2369 26.8773 15.0531 26.9382 14.8636 26.942L12.2986 27C12.1042 27.0051 11.9129 26.9498 11.7512 26.8418C11.5895 26.7337 11.4652 26.5781 11.3955 26.3965L10.3614 23.6601C10.0086 23.5395 9.65921 23.409 9.31378 23.2686C9.03125 23.1463 8.75298 23.0144 8.47948 22.8731L5.91448 23.9692C5.74547 24.0414 5.55914 24.0628 5.37818 24.0309C5.19722 23.999 5.02943 23.9152 4.89523 23.7897L2.99713 22.0091C2.85581 21.8771 2.75957 21.704 2.72202 21.5143C2.68447 21.3246 2.70751 21.1279 2.78788 20.952L3.89083 18.549C3.74414 18.2644 3.60815 17.9744 3.48313 17.6796C3.3372 17.3188 3.20214 16.9537 3.07813 16.5848L0.66163 15.849C0.465206 15.7896 0.293882 15.6671 0.174266 15.5003C0.0546498 15.3336 -0.00656447 15.132 0.000129872 14.927L0.0946299 12.3336C0.101356 12.1644 0.154214 12.0002 0.247488 11.8589C0.340761 11.7176 0.4709 11.6044 0.62383 11.5317L3.15913 10.314C3.27658 9.88335 3.37918 9.54855 3.46963 9.3042C3.59699 8.97783 3.73842 8.65713 3.89353 8.343L2.79463 6.021C2.71123 5.84467 2.68591 5.64643 2.7223 5.45479C2.75868 5.26316 2.85491 5.088 2.99713 4.9545L4.89253 3.1644C5.0254 3.03909 5.19165 2.95483 5.37128 2.92178C5.5509 2.88873 5.73626 2.90829 5.90503 2.9781L8.46733 4.0365C8.75083 3.8475 9.00733 3.69495 9.23953 3.5721C9.51628 3.42495 9.88618 3.27105 10.3519 3.105L11.2429 0.619652C11.3088 0.437765 11.4292 0.280642 11.5877 0.169739C11.7462 0.0588366 11.9351 -0.000440438 12.1285 2.46394e-06H14.9554ZM13.5325 9.47565C11.2821 9.47565 9.45823 11.2779 9.45823 13.5027C9.45823 15.7275 11.2821 17.5311 13.5325 17.5311C15.7816 17.5311 17.6055 15.7275 17.6055 13.5027C17.6055 11.2779 15.783 9.47565 13.5325 9.47565Z" fill="#F5FCF8"/>
</svg>
