<svg width="24" height="24" viewBox="0 0 24 24" fill="none" xmlns="http://www.w3.org/2000/svg">
<path fill-rule="evenodd" clip-rule="evenodd" d="M5.36577 1.83429C5.05331 1.52183 4.54678 1.52183 4.23434 1.83429C3.92189 2.14674 3.92188 2.65327 4.23434 2.96572L18.6343 17.3657C18.9468 17.678 19.4533 17.678 19.7658 17.3657C20.0781 17.0533 20.0781 16.5467 19.7658 16.2343L16.8045 13.2731C16.9072 13.1764 17.0078 13.0763 17.1062 12.9725L19.7806 10.1503C20.0731 9.84177 20.0731 9.35827 19.7806 9.0497L17.1062 6.22768C14.7763 3.76929 11.2355 3.34565 8.48816 4.95684L5.36577 1.83429ZM9.67 6.13852L10.9655 7.434C11.2787 7.28414 11.6298 7.20016 12.0002 7.20016C13.3257 7.20016 14.4002 8.27468 14.4002 9.60016C14.4002 9.97062 14.3163 10.3216 14.1663 10.6349L15.6727 12.1412C15.7655 12.0552 15.8564 11.9655 15.9451 11.8719L18.0981 9.60018L15.9451 7.32834C14.2437 5.53317 11.73 5.13659 9.67014 6.13852L9.67 6.13852Z" fill="#2F9062"/>
<path d="M4.21929 9.04973L6.4085 6.73987L7.54021 7.87171L5.90228 9.60005L8.05518 11.8718C9.44066 13.3337 11.3645 13.8681 13.1439 13.4752L14.4282 14.7595C11.8828 15.7136 8.9271 15.1179 6.89396 12.9725L4.2194 10.1504C3.92703 9.84183 3.92703 9.35834 4.2194 9.04977L4.21929 9.04973Z" fill="#2F9062"/>
</svg>
