<svg width="156" height="36" viewBox="0 0 156 36" fill="none" xmlns="http://www.w3.org/2000/svg">
<path d="M65.5954 28L65.3704 26.45H57.3204V20.075H63.4454L63.2204 18.575H57.3204V12.5H64.8704L64.6454 11H55.3704V28H65.5954ZM68.5819 28L71.5319 23.325L74.5569 28H76.7319L72.9319 22.2L77.1069 15.875H74.9319L71.8319 20.7L68.5319 15.55L66.7819 16.275L70.4319 21.85L66.3569 28H68.5819ZM90.9368 11H77.6118V12.575H83.3118V28H85.3118V12.575H91.1618L90.9368 11ZM94.9249 28V19.65C95.2916 19.2833 95.7166 18.9333 96.1999 18.6C96.6832 18.2667 97.1916 17.9917 97.7249 17.775C98.2749 17.5583 98.7832 17.45 99.2499 17.45L98.7749 15.875C98.3416 15.875 97.8666 15.9833 97.3499 16.2C96.8499 16.4167 96.3666 16.6833 95.8999 17C95.4499 17.3 95.0666 17.575 94.7499 17.825L94.1499 15.875H92.9749V28H94.9249ZM102.58 24.55C102.58 23.9167 102.789 23.3667 103.205 22.9C103.639 22.4167 104.264 22.175 105.08 22.175H108.255V24.95C107.839 25.4333 107.339 25.85 106.755 26.2C106.172 26.55 105.53 26.725 104.83 26.725C104.314 26.725 103.889 26.6167 103.555 26.4C103.222 26.1833 102.972 25.9083 102.805 25.575C102.655 25.225 102.58 24.8833 102.58 24.55ZM102.105 18.1C102.555 17.9167 103.047 17.7333 103.58 17.55C104.13 17.3667 104.797 17.275 105.58 17.275C106.547 17.275 107.23 17.55 107.63 18.1C108.047 18.65 108.255 19.3417 108.255 20.175V20.85H105.13C103.83 20.85 102.772 21.175 101.955 21.825C101.139 22.4583 100.73 23.3667 100.73 24.55C100.73 25.6167 101.072 26.5083 101.755 27.225C102.439 27.9417 103.489 28.3 104.905 28.3C105.572 28.3 106.239 28.1417 106.905 27.825C107.589 27.5083 108.122 27.1583 108.505 26.775L108.755 28H110.255V19.65C110.255 18.85 110.055 18.1417 109.655 17.525C109.255 16.9083 108.697 16.425 107.98 16.075C107.28 15.725 106.464 15.55 105.53 15.55C105.197 15.55 104.772 15.6 104.255 15.7C103.739 15.7833 103.23 15.9083 102.73 16.075C102.247 16.225 101.847 16.4083 101.53 16.625L102.105 18.1ZM121.737 25.825C121.271 26.0583 120.787 26.2583 120.287 26.425C119.804 26.575 119.162 26.65 118.362 26.65C117.529 26.65 116.821 26.4417 116.237 26.025C115.671 25.6083 115.246 25.0417 114.962 24.325C114.679 23.5917 114.537 22.775 114.537 21.875C114.554 21.0083 114.712 20.225 115.012 19.525C115.329 18.825 115.779 18.2667 116.362 17.85C116.946 17.4333 117.646 17.225 118.462 17.225C119.246 17.225 119.887 17.3167 120.387 17.5C120.887 17.6667 121.371 17.85 121.837 18.05L122.437 16.675C122.104 16.4417 121.687 16.2417 121.187 16.075C120.704 15.9083 120.221 15.7833 119.737 15.7C119.254 15.6 118.846 15.55 118.512 15.55C117.296 15.55 116.237 15.825 115.337 16.375C114.437 16.9083 113.746 17.65 113.262 18.6C112.796 19.55 112.554 20.65 112.537 21.9C112.537 23.1667 112.771 24.2833 113.237 25.25C113.704 26.2167 114.371 26.975 115.237 27.525C116.121 28.0583 117.171 28.325 118.387 28.325C118.737 28.325 119.154 28.275 119.637 28.175C120.121 28.0917 120.604 27.9667 121.087 27.8C121.587 27.6333 122.012 27.4417 122.362 27.225L121.737 25.825ZM126.938 28V23.45L128.638 21.775L132.638 28H134.963L129.963 20.475L133.663 16.825L132.463 15.55L126.938 21.075V10.35L124.988 10.625V28H126.938Z" fill="white"/>
<path d="M6.28198 1.00004C2.74251 1.00004 0 3.43096 0 6.56814C0 8.23911 0.688615 9.95426 2.04706 11.1048C0.674529 13.3298 0 15.8082 0 18.4997C0 22.2479 1.54249 25.6205 4.03836 28.2939V35.2045C4.03836 35.644 4.44026 35.9999 4.93573 35.9999H13.0128C13.5083 35.9999 13.9101 35.644 13.9101 35.2045V33.4645C15.0219 33.7435 16.1982 34.0113 17.5 34.0113C18.8018 34.0113 19.9781 33.7435 21.0899 33.4645V35.2045C21.0899 35.644 21.4918 35.9999 21.9872 35.9999H30.0643C30.3044 36.003 30.536 35.9206 30.7072 35.771C30.8781 35.6215 30.9745 35.4176 30.9745 35.2045C30.9745 34.9917 30.8781 34.7875 30.7072 34.638C30.536 34.4884 30.3044 34.406 30.0643 34.4091H22.8845V32.4204C22.8858 32.1716 22.7556 31.9363 22.5327 31.7851C22.3095 31.6339 22.0194 31.5837 21.7486 31.6497C20.2925 32.0115 18.8643 32.4205 17.4999 32.4205C16.1356 32.4205 14.7073 32.0115 13.2512 31.6497C12.9805 31.5837 12.6903 31.6339 12.4672 31.7851C12.2443 31.9363 12.1141 32.1716 12.1153 32.4204V34.4091H5.83305V28.0452C5.83211 27.853 5.75229 27.6677 5.60893 27.5234C3.22573 25.0775 1.79462 21.9794 1.79462 18.4999C1.79462 15.8196 2.47322 13.4467 3.91211 11.3535C4.15782 10.9911 4.04076 10.5214 3.64575 10.2845C2.52049 9.59202 1.7946 8.04392 1.7946 6.56826C1.7946 4.21398 3.62572 2.59095 6.28184 2.59095C8.25503 2.59095 10.1543 3.51702 10.8533 4.90283C11.0458 5.28791 11.5438 5.47324 11.9892 5.32537C13.6754 4.75939 15.4893 4.57962 17.5 4.57962C19.5106 4.57962 21.3245 4.75939 23.0107 5.32537C23.4561 5.47324 23.954 5.28791 24.1466 4.90283C24.8455 3.51702 26.7449 2.59095 28.7181 2.59095C31.3742 2.59095 33.2053 4.21398 33.2053 6.56826C33.2053 8.04392 32.4794 9.59202 31.3542 10.2845C30.9591 10.5214 30.8421 10.9911 31.0878 11.3535C32.5267 13.447 33.2053 15.8199 33.2053 18.4999C33.2053 21.9794 31.7743 25.0775 29.391 27.5234C29.2476 27.6676 29.1678 27.853 29.1669 28.0452V32.0226C29.1634 32.2356 29.2564 32.4409 29.4251 32.5924C29.5938 32.7442 29.8239 32.8293 30.0642 32.8293C30.3043 32.8293 30.5347 32.7442 30.7034 32.5924C30.8721 32.4409 30.9651 32.2356 30.9616 32.0226V28.2938C33.4575 25.6207 35 22.248 35 18.4997C35 15.8078 34.3255 13.3294 32.9529 11.1047C34.3114 9.95422 35 8.23907 35 6.5681C35 3.43085 32.2574 1 28.718 1C26.3964 1 24.1644 1.97991 22.9546 3.67226C21.198 3.18259 19.381 2.98866 17.4999 2.98866C15.6188 2.98866 13.8018 3.18259 12.0452 3.67226C10.8354 1.97991 8.60339 1 6.2818 1L6.28198 1.00004ZM11.2181 8.55694C10.2268 8.55694 9.42305 9.26909 9.42305 10.1477C9.42305 11.0266 10.2268 11.7388 11.2181 11.7388C12.2094 11.7388 13.0128 11.0266 13.0128 10.1477C13.0128 9.26909 12.2094 8.55694 11.2181 8.55694ZM23.7824 8.55694C22.7911 8.55694 21.9876 9.26909 21.9876 10.1477C21.9876 11.0266 22.7911 11.7388 23.7824 11.7388C24.7737 11.7388 25.5774 11.0266 25.5774 10.1477C25.5774 9.26909 24.7737 8.55694 23.7824 8.55694ZM17.5004 12.9321C12.8025 12.9321 8.97465 16.3249 8.97465 20.489C8.97465 24.6531 12.8024 28.0459 17.5004 28.0459C22.1984 28.0459 26.0262 24.6531 26.0262 20.489C26.0262 16.3249 22.1984 12.9321 17.5004 12.9321ZM17.5004 14.5229C21.2283 14.5229 24.2313 17.1847 24.2313 20.4889C24.2313 23.7931 21.2283 26.4549 17.5004 26.4549C13.7726 26.4549 10.7695 23.7931 10.7695 20.4889C10.7695 17.1847 13.7726 14.5229 17.5004 14.5229ZM14.8079 18.8981C13.8166 18.8981 13.0132 19.6103 13.0132 20.4889C13.0132 21.3675 13.8166 22.0797 14.8079 22.0797C15.7992 22.0797 16.603 21.3675 16.603 20.4889C16.603 19.6103 15.7992 18.8981 14.8079 18.8981ZM20.1928 18.8981C19.2016 18.8981 18.3978 19.6103 18.3978 20.4889C18.3978 21.3675 19.2016 22.0797 20.1928 22.0797C21.1841 22.0797 21.9876 21.3675 21.9876 20.4889C21.9876 19.6103 21.1841 18.8981 20.1928 18.8981Z" fill="white"/>
</svg>
