<svg width="35" height="35" viewBox="0 0 35 35" fill="none" xmlns="http://www.w3.org/2000/svg">
<path d="M6.28198 4.28074e-05C2.74251 4.28074e-05 0 2.43096 0 5.56814C0 7.23911 0.688615 8.95426 2.04706 10.1048C0.674529 12.3298 0 14.8082 0 17.4997C0 21.2479 1.54249 24.6205 4.03836 27.2939V34.2045C4.03836 34.644 4.44026 34.9999 4.93573 34.9999H13.0128C13.5083 34.9999 13.9101 34.644 13.9101 34.2045V32.4644C15.0219 32.7436 16.1982 33.0113 17.5 33.0113C18.8018 33.0113 19.9781 32.7436 21.0899 32.4644V34.2045C21.0899 34.644 21.4918 34.9999 21.9872 34.9999H30.0643C30.3044 35.003 30.536 34.9206 30.7072 34.771C30.8781 34.6215 30.9745 34.4176 30.9745 34.2045C30.9745 33.9917 30.8781 33.7875 30.7072 33.638C30.536 33.4884 30.3044 33.406 30.0643 33.4091H22.8845V31.4204C22.8858 31.1716 22.7556 30.9363 22.5327 30.7851C22.3095 30.6339 22.0194 30.5837 21.7486 30.6497C20.2925 31.0115 18.8643 31.4205 17.4999 31.4205C16.1356 31.4205 14.7073 31.0115 13.2512 30.6497C12.9805 30.5837 12.6903 30.6339 12.4672 30.7851C12.2443 30.9363 12.1141 31.1716 12.1153 31.4204V33.4091H5.83305V27.0452C5.83211 26.853 5.75229 26.6677 5.60893 26.5234C3.22573 24.0775 1.79462 20.9794 1.79462 17.4999C1.79462 14.8196 2.47322 12.4467 3.91211 10.3535C4.15782 9.99114 4.04076 9.52143 3.64575 9.28449C2.52049 8.59202 1.7946 7.04392 1.7946 5.56826C1.7946 3.21398 3.62572 1.59095 6.28184 1.59095C8.25503 1.59095 10.1543 2.51702 10.8533 3.90283C11.0458 4.28791 11.5438 4.47324 11.9892 4.32537C13.6754 3.75939 15.4893 3.57962 17.5 3.57962C19.5106 3.57962 21.3245 3.75939 23.0107 4.32537C23.4561 4.47324 23.954 4.28791 24.1466 3.90283C24.8455 2.51702 26.7449 1.59095 28.7181 1.59095C31.3742 1.59095 33.2053 3.21398 33.2053 5.56826C33.2053 7.04392 32.4794 8.59202 31.3542 9.28449C30.9591 9.52142 30.8421 9.99112 31.0878 10.3535C32.5267 12.447 33.2053 14.8199 33.2053 17.4999C33.2053 20.9794 31.7743 24.0775 29.391 26.5234C29.2476 26.6676 29.1678 26.853 29.1669 27.0452V31.0226C29.1634 31.2356 29.2564 31.4409 29.4251 31.5924C29.5938 31.7442 29.8239 31.8293 30.0642 31.8293C30.3043 31.8293 30.5347 31.7442 30.7034 31.5924C30.8721 31.4409 30.9651 31.2356 30.9616 31.0226V27.2938C33.4575 24.6207 35 21.248 35 17.4997C35 14.8078 34.3255 12.3294 32.9529 10.1047C34.3114 8.95421 35 7.23907 35 5.5681C35 2.43085 32.2574 0 28.718 0C26.3964 0 24.1644 0.979911 22.9546 2.67226C21.198 2.18259 19.381 1.98866 17.4999 1.98866C15.6188 1.98866 13.8018 2.18259 12.0452 2.67226C10.8354 0.979911 8.60339 0 6.2818 0L6.28198 4.28074e-05ZM11.2181 7.55694C10.2268 7.55694 9.42305 8.26909 9.42305 9.14772C9.42305 10.0266 10.2268 10.7388 11.2181 10.7388C12.2094 10.7388 13.0128 10.0266 13.0128 9.14772C13.0128 8.26909 12.2094 7.55694 11.2181 7.55694V7.55694ZM23.7824 7.55694C22.7911 7.55694 21.9876 8.26909 21.9876 9.14772C21.9876 10.0266 22.7911 10.7388 23.7824 10.7388C24.7737 10.7388 25.5774 10.0266 25.5774 9.14772C25.5774 8.26909 24.7737 7.55694 23.7824 7.55694V7.55694ZM17.5004 11.9321C12.8025 11.9321 8.97465 15.3249 8.97465 19.489C8.97465 23.6531 12.8024 27.0459 17.5004 27.0459C22.1984 27.0459 26.0262 23.6531 26.0262 19.489C26.0262 15.3249 22.1984 11.9321 17.5004 11.9321ZM17.5004 13.5229C21.2283 13.5229 24.2313 16.1847 24.2313 19.4889C24.2313 22.7931 21.2283 25.4549 17.5004 25.4549C13.7726 25.4549 10.7695 22.7931 10.7695 19.4889C10.7695 16.1847 13.7726 13.5229 17.5004 13.5229ZM14.8079 17.8981C13.8166 17.8981 13.0132 18.6103 13.0132 19.4889C13.0132 20.3675 13.8166 21.0797 14.8079 21.0797C15.7992 21.0797 16.603 20.3675 16.603 19.4889C16.603 18.6103 15.7992 17.8981 14.8079 17.8981ZM20.1928 17.8981C19.2016 17.8981 18.3978 18.6103 18.3978 19.4889C18.3978 20.3675 19.2016 21.0797 20.1928 21.0797C21.1841 21.0797 21.9876 20.3675 21.9876 19.4889C21.9876 18.6103 21.1841 17.8981 20.1928 17.8981Z" fill="white"/>
</svg>
