<svg width="156" height="36" viewBox="0 0 156 36" fill="none" xmlns="http://www.w3.org/2000/svg">
<path d="M53.9205 28C54.8038 28 55.6205 27.9167 56.3705 27.75C57.1372 27.5667 57.8038 27.2917 58.3705 26.925C58.9538 26.5417 59.4038 26.05 59.7205 25.45C60.0538 24.8333 60.2205 24.0917 60.2205 23.225C60.2205 22.075 59.9122 21.15 59.2955 20.45C58.6955 19.75 57.9122 19.2333 56.9455 18.9C57.5788 18.55 58.1288 18.1 58.5955 17.55C59.0622 16.9833 59.2955 16.3083 59.2955 15.525C59.2955 14.375 59.0372 13.475 58.5205 12.825C58.0205 12.175 57.3205 11.7083 56.4205 11.425C55.5205 11.1417 54.4872 11 53.3205 11H48.5955V28H53.9205ZM53.2455 12.675C54.0622 12.675 54.7705 12.75 55.3705 12.9C55.9872 13.05 56.4622 13.3333 56.7955 13.75C57.1288 14.1667 57.2955 14.7667 57.2955 15.55C57.2955 16.25 57.0872 16.8083 56.6705 17.225C56.2705 17.6417 55.7372 17.9417 55.0705 18.125C54.4038 18.2917 53.6705 18.3833 52.8705 18.4H50.5705V12.675H53.2455ZM54.1455 20.025C55.3788 20.025 56.3622 20.2833 57.0955 20.8C57.8455 21.3 58.2205 22.125 58.2205 23.275C58.2205 24.0417 58.0288 24.65 57.6455 25.1C57.2622 25.55 56.7455 25.875 56.0955 26.075C55.4455 26.2583 54.7122 26.35 53.8955 26.35H50.5705V20.025H54.1455ZM70.6916 15.875V24.45C70.3249 24.85 69.8999 25.225 69.4166 25.575C68.9333 25.9083 68.4499 26.175 67.9666 26.375C67.4999 26.5583 67.0499 26.65 66.6166 26.65C65.7999 26.65 65.2333 26.3833 64.9166 25.85C64.5999 25.3167 64.4416 24.6333 64.4416 23.8V15.875H62.4916V24.075C62.4916 24.8917 62.6166 25.625 62.8666 26.275C63.1333 26.925 63.5499 27.4333 64.1166 27.8C64.6833 28.1667 65.4083 28.35 66.2916 28.35C66.8249 28.35 67.3666 28.2583 67.9166 28.075C68.4833 27.8917 69.0166 27.6417 69.5166 27.325C70.0333 26.9917 70.4749 26.6333 70.8416 26.25L71.1916 28H72.6666V15.875H70.6916ZM83.699 26.05L84.499 28H85.699V10.375L83.699 10.625V26.05ZM84.274 24.85C83.8074 25.4167 83.3074 25.8583 82.774 26.175C82.2407 26.4917 81.5907 26.65 80.824 26.65C79.9907 26.65 79.2907 26.45 78.724 26.05C78.174 25.6333 77.7574 25.0667 77.474 24.35C77.2074 23.6167 77.074 22.7917 77.074 21.875C77.074 20.9917 77.2157 20.2083 77.499 19.525C77.7824 18.825 78.2074 18.2667 78.774 17.85C79.3407 17.4333 80.0324 17.225 80.849 17.225C81.649 17.225 82.3074 17.3833 82.824 17.7C83.3574 18 83.8574 18.4083 84.324 18.925L84.924 17.575C84.5907 17.1583 84.1907 16.8 83.724 16.5C83.274 16.2 82.799 15.9667 82.299 15.8C81.799 15.6333 81.3324 15.55 80.899 15.55C79.699 15.55 78.6574 15.825 77.774 16.375C76.9074 16.9083 76.2407 17.65 75.774 18.6C75.3074 19.55 75.074 20.65 75.074 21.9C75.074 23.1667 75.299 24.2833 75.749 25.25C76.199 26.2167 76.8574 26.975 77.724 27.525C78.5907 28.0583 79.6324 28.325 80.849 28.325C81.2657 28.325 81.724 28.25 82.224 28.1C82.724 27.95 83.2074 27.7167 83.674 27.4C84.1407 27.0833 84.549 26.7083 84.899 26.275L84.274 24.85ZM98.9559 15.875H97.7559L96.9559 17.475V29.3C96.9559 30.25 96.6142 30.9583 95.9309 31.425C95.2642 31.8917 94.4225 32.125 93.4059 32.125C92.6059 32.125 91.9392 32.025 91.4059 31.825C90.8725 31.6417 90.3559 31.4333 89.8559 31.2L89.2559 32.625C89.5225 32.8083 89.8392 32.9667 90.2059 33.1C90.5892 33.2333 90.9809 33.35 91.3809 33.45C91.7975 33.55 92.1892 33.625 92.5559 33.675C92.9225 33.725 93.2309 33.75 93.4809 33.75C94.6309 33.75 95.6142 33.55 96.4309 33.15C97.2475 32.7667 97.8725 32.2417 98.3059 31.575C98.7392 30.9083 98.9559 30.15 98.9559 29.3V15.875ZM97.5309 24.85C97.0642 25.4167 96.5642 25.8583 96.0309 26.175C95.4975 26.4917 94.8475 26.65 94.0809 26.65C93.2475 26.65 92.5475 26.45 91.9809 26.05C91.4309 25.6333 91.0142 25.0667 90.7309 24.35C90.4642 23.6167 90.3309 22.7917 90.3309 21.875C90.3309 20.9917 90.4725 20.2083 90.7559 19.525C91.0392 18.825 91.4642 18.2667 92.0309 17.85C92.5975 17.4333 93.2892 17.225 94.1059 17.225C94.9059 17.225 95.5642 17.3833 96.0809 17.7C96.6142 18 97.1142 18.4083 97.5809 18.925L98.1809 17.575C97.8475 17.1583 97.4475 16.8 96.9809 16.5C96.5309 16.2 96.0559 15.9667 95.5559 15.8C95.0559 15.6333 94.5892 15.55 94.1559 15.55C92.9559 15.55 91.9142 15.825 91.0309 16.375C90.1642 16.9083 89.4975 17.65 89.0309 18.6C88.5642 19.55 88.3309 20.65 88.3309 21.9C88.3309 23.1667 88.5559 24.2833 89.0059 25.25C89.4559 26.2167 90.1142 26.975 90.9809 27.525C91.8475 28.0583 92.8892 28.325 94.1059 28.325C94.5225 28.325 94.9809 28.25 95.4809 28.1C95.9809 27.95 96.4642 27.7167 96.9309 27.4C97.3975 27.0833 97.8059 26.7083 98.1559 26.275L97.5309 24.85ZM112.315 22.25V22.075C112.315 20.8583 112.132 19.7583 111.765 18.775C111.415 17.7917 110.857 17.0083 110.09 16.425C109.34 15.8417 108.357 15.55 107.14 15.55C105.94 15.55 104.915 15.825 104.065 16.375C103.232 16.9083 102.59 17.65 102.14 18.6C101.707 19.55 101.49 20.65 101.49 21.9C101.49 23.1667 101.723 24.2833 102.19 25.25C102.657 26.2167 103.357 26.9667 104.29 27.5C105.24 28.0333 106.423 28.3 107.84 28.3C108.44 28.3 108.99 28.2417 109.49 28.125C110.007 28.025 110.482 27.8833 110.915 27.7C111.365 27.5 111.782 27.2917 112.165 27.075L111.515 25.625C110.882 25.9417 110.282 26.2 109.715 26.4C109.148 26.5833 108.515 26.675 107.815 26.675C106.815 26.675 106.007 26.4833 105.39 26.1C104.773 25.7167 104.315 25.1917 104.015 24.525C103.732 23.8583 103.565 23.1 103.515 22.25H112.315ZM103.565 20.9C103.648 20.1667 103.823 19.525 104.09 18.975C104.373 18.425 104.757 18 105.24 17.7C105.74 17.3833 106.348 17.225 107.065 17.225C107.765 17.225 108.34 17.3833 108.79 17.7C109.257 18 109.615 18.425 109.865 18.975C110.115 19.525 110.282 20.1667 110.365 20.9H103.565ZM119.491 16.075H117.291V12.45L115.291 13V16.075H113.541L113.566 17.575H115.291V24.85C115.291 25.6167 115.432 26.2583 115.716 26.775C115.999 27.2917 116.399 27.6917 116.916 27.975C117.432 28.2417 118.032 28.375 118.716 28.375C118.949 28.375 119.182 28.35 119.416 28.3C119.649 28.2667 119.866 28.2167 120.066 28.15C120.266 28.0833 120.432 28.0167 120.566 27.95L120.091 26.4C119.974 26.45 119.807 26.5083 119.591 26.575C119.391 26.625 119.191 26.65 118.991 26.65C118.391 26.65 117.957 26.4583 117.691 26.075C117.424 25.6917 117.291 25.1917 117.291 24.575V17.575H120.116L119.491 16.075ZM132.798 22.25V22.075C132.798 20.8583 132.615 19.7583 132.248 18.775C131.898 17.7917 131.34 17.0083 130.573 16.425C129.823 15.8417 128.84 15.55 127.623 15.55C126.423 15.55 125.398 15.825 124.548 16.375C123.715 16.9083 123.073 17.65 122.623 18.6C122.19 19.55 121.973 20.65 121.973 21.9C121.973 23.1667 122.207 24.2833 122.673 25.25C123.14 26.2167 123.84 26.9667 124.773 27.5C125.723 28.0333 126.907 28.3 128.323 28.3C128.923 28.3 129.473 28.2417 129.973 28.125C130.49 28.025 130.965 27.8833 131.398 27.7C131.848 27.5 132.265 27.2917 132.648 27.075L131.998 25.625C131.365 25.9417 130.765 26.2 130.198 26.4C129.632 26.5833 128.998 26.675 128.298 26.675C127.298 26.675 126.49 26.4833 125.873 26.1C125.257 25.7167 124.798 25.1917 124.498 24.525C124.215 23.8583 124.048 23.1 123.998 22.25H132.798ZM124.048 20.9C124.132 20.1667 124.307 19.525 124.573 18.975C124.857 18.425 125.24 18 125.723 17.7C126.223 17.3833 126.832 17.225 127.548 17.225C128.248 17.225 128.823 17.3833 129.273 17.7C129.74 18 130.098 18.425 130.348 18.975C130.598 19.525 130.765 20.1667 130.848 20.9H124.048ZM137.149 28V19.65C137.516 19.2833 137.941 18.9333 138.424 18.6C138.907 18.2667 139.416 17.9917 139.949 17.775C140.499 17.5583 141.007 17.45 141.474 17.45L140.999 15.875C140.566 15.875 140.091 15.9833 139.574 16.2C139.074 16.4167 138.591 16.6833 138.124 17C137.674 17.3 137.291 17.575 136.974 17.825L136.374 15.875H135.199V28H137.149Z" fill="white"/>
<path d="M6.28198 1.00004C2.74251 1.00004 0 3.43096 0 6.56814C0 8.23911 0.688615 9.95426 2.04706 11.1048C0.674529 13.3298 0 15.8082 0 18.4997C0 22.2479 1.54249 25.6205 4.03836 28.2939V35.2045C4.03836 35.644 4.44026 35.9999 4.93573 35.9999H13.0128C13.5083 35.9999 13.9101 35.644 13.9101 35.2045V33.4644C15.0219 33.7436 16.1982 34.0113 17.5 34.0113C18.8018 34.0113 19.9781 33.7436 21.0899 33.4644V35.2045C21.0899 35.644 21.4918 35.9999 21.9872 35.9999H30.0643C30.3044 36.003 30.536 35.9206 30.7072 35.771C30.8781 35.6215 30.9745 35.4176 30.9745 35.2045C30.9745 34.9917 30.8781 34.7875 30.7072 34.638C30.536 34.4884 30.3044 34.406 30.0643 34.4091H22.8845V32.4204C22.8858 32.1716 22.7556 31.9363 22.5327 31.7851C22.3095 31.6339 22.0194 31.5837 21.7486 31.6497C20.2925 32.0115 18.8643 32.4205 17.4999 32.4205C16.1356 32.4205 14.7073 32.0115 13.2512 31.6497C12.9805 31.5837 12.6903 31.6339 12.4672 31.7851C12.2443 31.9363 12.1141 32.1716 12.1153 32.4204V34.4091H5.83305V28.0452C5.83211 27.853 5.75229 27.6677 5.60893 27.5234C3.22573 25.0775 1.79462 21.9794 1.79462 18.4999C1.79462 15.8196 2.47322 13.4467 3.91211 11.3535C4.15782 10.9911 4.04076 10.5214 3.64575 10.2845C2.52049 9.59202 1.7946 8.04392 1.7946 6.56826C1.7946 4.21398 3.62572 2.59095 6.28184 2.59095C8.25503 2.59095 10.1543 3.51702 10.8533 4.90283C11.0458 5.28791 11.5438 5.47324 11.9892 5.32537C13.6754 4.75939 15.4893 4.57962 17.5 4.57962C19.5106 4.57962 21.3245 4.75939 23.0107 5.32537C23.4561 5.47324 23.954 5.28791 24.1466 4.90283C24.8455 3.51702 26.7449 2.59095 28.7181 2.59095C31.3742 2.59095 33.2053 4.21398 33.2053 6.56826C33.2053 8.04392 32.4794 9.59202 31.3542 10.2845C30.9591 10.5214 30.8421 10.9911 31.0878 11.3535C32.5267 13.447 33.2053 15.8199 33.2053 18.4999C33.2053 21.9794 31.7743 25.0775 29.391 27.5234C29.2476 27.6676 29.1678 27.853 29.1669 28.0452V32.0226C29.1634 32.2356 29.2564 32.4409 29.4251 32.5924C29.5938 32.7442 29.8239 32.8293 30.0642 32.8293C30.3043 32.8293 30.5347 32.7442 30.7034 32.5924C30.8721 32.4409 30.9651 32.2356 30.9616 32.0226V28.2938C33.4575 25.6207 35 22.248 35 18.4997C35 15.8078 34.3255 13.3294 32.9529 11.1047C34.3114 9.95421 35 8.23907 35 6.5681C35 3.43085 32.2574 1 28.718 1C26.3964 1 24.1644 1.97991 22.9546 3.67226C21.198 3.18259 19.381 2.98866 17.4999 2.98866C15.6188 2.98866 13.8018 3.18259 12.0452 3.67226C10.8354 1.97991 8.60339 1 6.2818 1L6.28198 1.00004ZM11.2181 8.55694C10.2268 8.55694 9.42305 9.26909 9.42305 10.1477C9.42305 11.0266 10.2268 11.7388 11.2181 11.7388C12.2094 11.7388 13.0128 11.0266 13.0128 10.1477C13.0128 9.26909 12.2094 8.55694 11.2181 8.55694V8.55694ZM23.7824 8.55694C22.7911 8.55694 21.9876 9.26909 21.9876 10.1477C21.9876 11.0266 22.7911 11.7388 23.7824 11.7388C24.7737 11.7388 25.5774 11.0266 25.5774 10.1477C25.5774 9.26909 24.7737 8.55694 23.7824 8.55694V8.55694ZM17.5004 12.9321C12.8025 12.9321 8.97465 16.3249 8.97465 20.489C8.97465 24.6531 12.8024 28.0459 17.5004 28.0459C22.1984 28.0459 26.0262 24.6531 26.0262 20.489C26.0262 16.3249 22.1984 12.9321 17.5004 12.9321ZM17.5004 14.5229C21.2283 14.5229 24.2313 17.1847 24.2313 20.4889C24.2313 23.7931 21.2283 26.4549 17.5004 26.4549C13.7726 26.4549 10.7695 23.7931 10.7695 20.4889C10.7695 17.1847 13.7726 14.5229 17.5004 14.5229ZM14.8079 18.8981C13.8166 18.8981 13.0132 19.6103 13.0132 20.4889C13.0132 21.3675 13.8166 22.0797 14.8079 22.0797C15.7992 22.0797 16.603 21.3675 16.603 20.4889C16.603 19.6103 15.7992 18.8981 14.8079 18.8981ZM20.1928 18.8981C19.2016 18.8981 18.3978 19.6103 18.3978 20.4889C18.3978 21.3675 19.2016 22.0797 20.1928 22.0797C21.1841 22.0797 21.9876 21.3675 21.9876 20.4889C21.9876 19.6103 21.1841 18.8981 20.1928 18.8981Z" fill="white"/>
</svg>
